<svg width="20" height="22" viewBox="0 0 20 22" fill="none" xmlns="http://www.w3.org/2000/svg">
<path d="M17.8177 2.66175H16.2422V1.5203C16.2422 0.68067 15.6009 0 14.8099 0H14.7526C13.9616 0 13.3203 0.68067 13.3203 1.5203V2.66175H5.92969V1.5203C5.92969 0.68067 5.28842 0 4.4974 0H4.4401C3.64908 0 3.00781 0.68067 3.00781 1.5203V2.66175H1.43229C0.641266 2.66175 0 3.34242 0 4.18205V20.4797C0 21.3195 0.641266 22 1.43229 22H17.8177C18.6087 22 19.25 21.3195 19.25 20.4797V4.18205C19.25 3.34242 18.6087 2.66175 17.8177 2.66175ZM16.8438 19.5979H2.40625V7.25306H16.8438V19.5979Z" fill="#006689"/>
<path d="M4.3386 12.375H6.6614C6.77936 12.375 6.875 12.2794 6.875 12.1614V9.8386C6.875 9.72064 6.77936 9.625 6.6614 9.625H4.3386C4.22064 9.625 4.125 9.72064 4.125 9.8386V12.1614C4.125 12.2794 4.22064 12.375 4.3386 12.375Z" fill="#006689"/>
<path d="M8.4636 12.375H10.7864C10.9044 12.375 11 12.2794 11 12.1614V9.8386C11 9.72064 10.9044 9.625 10.7864 9.625H8.4636C8.34564 9.625 8.25 9.72064 8.25 9.8386V12.1614C8.25 12.2794 8.34564 12.375 8.4636 12.375Z" fill="#006689"/>
<path d="M12.5886 12.375H14.9114C15.0294 12.375 15.125 12.2794 15.125 12.1614V9.8386C15.125 9.72064 15.0294 9.625 14.9114 9.625H12.5886C12.4706 9.625 12.375 9.72064 12.375 9.8386V12.1614C12.375 12.2794 12.4706 12.375 12.5886 12.375Z" fill="#006689"/>
<path d="M4.3386 16.5H6.6614C6.77936 16.5 6.875 16.4044 6.875 16.2864V13.9636C6.875 13.8456 6.77936 13.75 6.6614 13.75H4.3386C4.22064 13.75 4.125 13.8456 4.125 13.9636V16.2864C4.125 16.4044 4.22064 16.5 4.3386 16.5Z" fill="#006689"/>
<path d="M8.4636 16.5H10.7864C10.9044 16.5 11 16.4044 11 16.2864V13.9636C11 13.8456 10.9044 13.75 10.7864 13.75H8.4636C8.34564 13.75 8.25 13.8456 8.25 13.9636V16.2864C8.25 16.4044 8.34564 16.5 8.4636 16.5Z" fill="#006689"/>
<path d="M12.5886 16.5H14.9114C15.0294 16.5 15.125 16.4044 15.125 16.2864V13.9636C15.125 13.8456 15.0294 13.75 14.9114 13.75H12.5886C12.4706 13.75 12.375 13.8456 12.375 13.9636V16.2864C12.375 16.4044 12.4706 16.5 12.5886 16.5Z" fill="#006689"/>
</svg>
