<svg width="26" height="30" viewBox="0 0 26 30" fill="none" xmlns="http://www.w3.org/2000/svg">
<g clip-path="url(#clip0)">
<path d="M0 0V30H22.9487V4.59574L18.3716 0H0Z" fill="#EEEEEE"/>
<path d="M12.9046 3.95746H3.87769V4.59576H12.9046V3.95746Z" fill="#006689"/>
<path d="M19.198 24.5106H8.00977V25.1489H19.198V24.5106Z" fill="#006689"/>
<path d="M19.198 7.14893H3.87769V7.78722H19.198V7.14893Z" fill="#006689"/>
<path d="M19.198 10.3404H3.87769V10.9787H19.198V10.3404Z" fill="#006689"/>
<path d="M19.198 13.5319H3.87769V14.1702H19.198V13.5319Z" fill="#006689"/>
<path d="M19.198 16.7234H3.87769V17.3617H19.198V16.7234Z" fill="#006689"/>
<path d="M19.198 19.9149H3.87769V20.5532H19.198V19.9149Z" fill="#006689"/>
<path d="M18.3716 0V4.59574H22.9486L18.3716 0Z" fill="#006689"/>
<path d="M15.7018 25.4043L14.4304 28.5958L17.6089 27.3192L15.7018 25.4043ZM15.7018 25.4043L14.4304 28.5958L17.6089 27.3192L15.7018 25.4043Z" fill="#7BF1D4"/>
<path d="M25.8095 18.1277L25.3009 17.6171L24.8559 17.1702C24.6017 16.9149 24.1567 16.9149 23.9024 17.1702L22.6946 18.383L23.5846 19.2766L24.6017 20.2979L25.8095 19.0851C26.0638 18.8298 26.0638 18.383 25.8095 18.1277Z" fill="#7BF1D4"/>
<path d="M22.6826 18.4172L15.7144 25.412L17.602 27.3079L24.5703 20.3131L22.6826 18.4172Z" fill="#006689"/>
<path d="M14.8754 27.383L14.4304 28.5958L15.5747 28.0851L14.8754 27.383Z" fill="#006689"/>
</g>
<defs>
<clipPath id="clip0">
<rect width="26" height="30" fill="white"/>
</clipPath>
</defs>
</svg>
