<svg width="37" height="29" viewBox="0 0 37 29" fill="none" xmlns="http://www.w3.org/2000/svg">
<g clip-path="url(#clip0)">
<path d="M13.5879 3.06608L16.4586 0L19.3293 3.06608H13.5879ZM16.4586 0.76652L14.8 2.55507H18.1172L16.4586 0.76652Z" fill="#006689"/>
<path d="M33.3 2.10791H0V25.4229H33.3V2.10791Z" fill="#006689"/>
<path d="M30.7484 4.27972H2.48804V23.1233H30.7484V4.27972Z" fill="#EEEEEE"/>
<path d="M10.8447 16.1608C10.8447 16.1608 17.6068 9.90089 30.7482 10.4758V23.1872H17.9896L11.8016 16.9912L10.8447 16.1608Z" fill="#006689"/>
<path d="M2.48804 15.2026C2.48804 15.2026 16.8415 13.6696 22.5829 23.1872H2.48804V15.2026Z" fill="#7BF1D4"/>
<path d="M7.39999 11.37C8.63311 11.37 9.63275 10.3691 9.63275 9.13436C9.63275 7.89963 8.63311 6.89868 7.39999 6.89868C6.16688 6.89868 5.16724 7.89963 5.16724 9.13436C5.16724 10.3691 6.16688 11.37 7.39999 11.37Z" fill="#7BF1D4"/>
<path d="M26.9208 28.2974C27.6863 27.5308 27.8777 26.3811 27.4311 25.4229L33.4277 19.4185C34.3846 19.8656 35.5328 19.674 36.2984 18.9075C37.0639 18.141 37.2553 16.9912 36.8087 16.033C36.6173 16.2247 35.1501 17.6938 35.1501 17.6938L34.5759 17.1189L34.0018 16.544C34.1932 16.3524 35.6604 14.8833 35.6604 14.8833C34.7035 14.4361 33.5553 14.6277 32.7897 15.3943C32.0242 16.1608 31.8328 17.3106 32.2794 18.2687L26.2828 24.2731C25.3259 23.826 24.1777 24.0176 23.4121 24.7841C22.6466 25.5507 22.4552 26.7004 22.9018 27.6586L24.5604 25.9978L25.1346 26.5727L25.7087 27.1476C25.7087 27.1476 24.1777 28.6167 24.0501 28.8084C25.007 29.1916 26.1552 29.0639 26.9208 28.2974Z" fill="#7BF1D4"/>
</g>
<defs>
<clipPath id="clip0">
<rect width="37" height="29" fill="white"/>
</clipPath>
</defs>
</svg>
