<svg width="33" height="19" viewBox="0 0 33 19" fill="none" xmlns="http://www.w3.org/2000/svg">
<g clip-path="url(#clip0)">
<path d="M11.3816 14.8696C9.42854 13.6305 8.0816 11.3587 8.0816 8.81163C8.0816 6.26453 9.36119 3.99279 11.3816 2.75366H5.9265C5.9265 2.8225 5.9265 2.96018 5.9265 3.02902C5.9265 4.6812 4.57956 6.05801 2.96324 6.05801C2.89589 6.05801 2.76119 6.05801 2.69385 6.05801V11.5653C2.76119 11.5653 2.89589 11.5653 2.96324 11.5653C4.57956 11.5653 5.9265 12.9421 5.9265 14.5942C5.9265 14.6631 5.9265 14.8008 5.9265 14.8696H11.3816Z" fill="#EAE8D3"/>
<path d="M27.2082 6.05801C25.5918 6.05801 24.2449 4.6812 24.2449 3.02902C24.2449 2.96018 24.2449 2.8225 24.2449 2.75366H18.7898C20.7429 3.99279 22.0898 6.26453 22.0898 8.81163C22.0898 11.3587 20.7429 13.6305 18.7898 14.8696H24.2449C24.2449 14.8008 24.2449 14.6631 24.2449 14.5942C24.2449 12.9421 25.5918 11.5653 27.2082 11.5653C27.2755 11.5653 27.4102 11.5653 27.4776 11.5653V6.05801C27.4102 6.05801 27.2755 6.05801 27.2082 6.05801Z" fill="#EAE8D3"/>
<path d="M2.96315 4.40578C2.22233 4.40578 1.61621 3.78622 1.61621 3.02897C1.61621 2.27173 2.22233 1.65216 2.96315 1.65216C3.70397 1.65216 4.31009 2.27173 4.31009 3.02897C4.31009 3.78622 3.70397 4.40578 2.96315 4.40578Z" fill="#EAE8D3"/>
<path d="M27.2083 4.40578C26.4675 4.40578 25.8613 3.78622 25.8613 3.02897C25.8613 2.27173 26.4675 1.65216 27.2083 1.65216C27.9491 1.65216 28.5552 2.27173 28.5552 3.02897C28.5552 3.78622 27.9491 4.40578 27.2083 4.40578Z" fill="#EAE8D3"/>
<path d="M2.96315 15.971C2.22233 15.971 1.61621 15.3515 1.61621 14.5942C1.61621 13.837 2.22233 13.2174 2.96315 13.2174C3.70397 13.2174 4.31009 13.837 4.31009 14.5942C4.31009 15.3515 3.70397 15.971 2.96315 15.971Z" fill="#EAE8D3"/>
<path d="M27.2083 15.971C26.4675 15.971 25.8613 15.3515 25.8613 14.5942C25.8613 13.837 26.4675 13.2174 27.2083 13.2174C27.9491 13.2174 28.5552 13.837 28.5552 14.5942C28.5552 15.3515 27.9491 15.971 27.2083 15.971Z" fill="#EAE8D3"/>
<path d="M30.1714 0H0V17.6232H30.1714V0Z" fill="#006689"/>
<path d="M11.3816 14.8696C9.42854 13.6305 8.0816 11.3587 8.0816 8.81163C8.0816 6.26453 9.36119 3.99279 11.3816 2.75366H5.9265C5.9265 2.8225 5.9265 2.96018 5.9265 3.02902C5.9265 4.6812 4.57956 6.05801 2.96324 6.05801C2.89589 6.05801 2.76119 6.05801 2.69385 6.05801V11.5653C2.76119 11.5653 2.89589 11.5653 2.96324 11.5653C4.57956 11.5653 5.9265 12.9421 5.9265 14.5942C5.9265 14.6631 5.9265 14.8008 5.9265 14.8696H11.3816Z" fill="#EEEEEE"/>
<path d="M27.2082 6.05801C25.5918 6.05801 24.2449 4.6812 24.2449 3.02902C24.2449 2.96018 24.2449 2.8225 24.2449 2.75366H18.7898C20.7429 3.99279 22.0898 6.26453 22.0898 8.81163C22.0898 11.3587 20.7429 13.6305 18.7898 14.8696H24.2449C24.2449 14.8008 24.2449 14.6631 24.2449 14.5942C24.2449 12.9421 25.5918 11.5653 27.2082 11.5653C27.2755 11.5653 27.4102 11.5653 27.4776 11.5653V6.05801C27.4102 6.05801 27.2755 6.05801 27.2082 6.05801Z" fill="#EEEEEE"/>
<path d="M4.63085 14.5455L2.96411 12.8418L1.29738 14.5455L2.96411 16.2492L4.63085 14.5455Z" fill="#EEEEEE"/>
<path d="M4.63036 2.98013L2.96362 1.27643L1.29689 2.98013L2.96362 4.68383L4.63036 2.98013Z" fill="#EEEEEE"/>
<path d="M28.8757 14.5453L27.209 12.8416L25.5422 14.5453L27.209 16.249L28.8757 14.5453Z" fill="#EEEEEE"/>
<path d="M28.875 2.97995L27.2083 1.27625L25.5415 2.97995L27.2083 4.68365L28.875 2.97995Z" fill="#EEEEEE"/>
<path d="M16.6348 11.9094C16.3654 12.2536 15.894 12.4601 15.4226 12.529C15.4226 12.529 15.3552 12.5289 15.3552 12.5978V13.2174C15.3552 13.2862 15.3552 13.2862 15.2879 13.2862H14.8165C14.7491 13.2862 14.7491 13.2862 14.7491 13.2174V12.5978C14.7491 12.5978 14.7491 12.529 14.6818 12.529C14.2103 12.4601 13.8062 12.2536 13.5369 11.9094C13.2675 11.5652 13.1328 11.1521 13.1328 10.6703V10.3261C13.1328 10.2572 13.1328 10.2572 13.2001 10.2572H13.9409C14.0083 10.2572 14.0083 10.2572 14.0083 10.3261V10.5326C14.0083 10.8768 14.0756 11.1521 14.2777 11.3587C14.4797 11.5652 14.7491 11.634 15.0858 11.634C15.4226 11.634 15.6246 11.5652 15.8267 11.3587C16.0287 11.1521 16.096 10.9456 16.096 10.6014C16.096 10.3949 16.0287 10.2572 15.9613 10.1195C15.894 9.98185 15.7593 9.84417 15.6246 9.77533C15.4899 9.63765 15.2879 9.49996 14.9511 9.36228C14.6818 9.15576 14.4797 9.08692 14.4797 9.08692C14.143 8.8804 13.9409 8.67388 13.7389 8.5362C13.5369 8.32967 13.4022 8.12315 13.2675 7.91663C13.1328 7.71011 13.0654 7.43475 13.0654 7.09054C13.0654 6.60866 13.2001 6.19562 13.4695 5.85141C13.7389 5.50721 14.143 5.36953 14.6144 5.23185C14.6144 5.23185 14.6818 5.23185 14.6818 5.16301V4.4746C14.6818 4.40576 14.6818 4.40576 14.7491 4.40576H15.1532C15.2205 4.40576 15.2205 4.40576 15.2205 4.4746V5.16301C15.2205 5.16301 15.2205 5.23185 15.2879 5.23185C15.8267 5.30069 16.2307 5.50721 16.5001 5.85141C16.7695 6.19562 16.9716 6.60866 16.9716 7.15938V7.43475C16.9716 7.50359 16.9716 7.50359 16.9042 7.50359H16.1634C16.096 7.50359 16.096 7.50359 16.096 7.43475V7.22823C16.096 6.88402 16.0287 6.60866 15.8267 6.40214C15.6246 6.19562 15.3552 6.05794 15.0185 6.05794C14.7491 6.05794 14.4797 6.12678 14.2777 6.3333C14.0756 6.53982 14.0083 6.74634 14.0083 7.0217C14.0083 7.22823 14.0756 7.36591 14.143 7.50359C14.2103 7.64127 14.345 7.77895 14.4797 7.84779C14.6144 7.91663 14.8838 8.05431 15.1532 8.26083L15.4226 8.39851C15.9613 8.74272 16.4328 9.08692 16.6348 9.36228C16.9042 9.63765 16.9716 10.0507 16.9716 10.5326C17.1062 11.0833 16.9042 11.5652 16.6348 11.9094Z" fill="#EEEEEE"/>
<path d="M33 17.5544H25.2551V19H33V17.5544Z" fill="#7BF1D4"/>
<path d="M33 16.1087H25.2551V17.5544H33V16.1087Z" fill="#EEEEEE"/>
<path d="M33 14.663H25.2551V16.1087H33V14.663Z" fill="#7BF1D4"/>
<path d="M33 13.2174H25.2551V14.6631H33V13.2174Z" fill="#EEEEEE"/>
<path d="M33 11.7717H25.2551V13.2174H33V11.7717Z" fill="#7BF1D4"/>
</g>
<defs>
<clipPath id="clip0">
<rect width="33" height="19" fill="white"/>
</clipPath>
</defs>
</svg>
