<svg width="30" height="29" viewBox="0 0 30 29" fill="none" xmlns="http://www.w3.org/2000/svg">
<path d="M14.8881 24.0024L18.5821 21.9929C18.5821 21.9929 18.1343 21.0998 18.1343 21.2114L20.3731 21.0998C21.0448 20.7648 19.7015 17.4157 19.7015 16.5226L19.1418 14.0665C19.1418 14.0665 17.0149 13.9549 16.4552 12.6152C16.3433 12.5036 16.3433 12.2803 16.2313 12.057C16.2313 12.057 16.2313 12.057 16.2313 11.9454C16.1194 11.7221 16.1194 11.6104 16.0075 11.3872C15.8955 11.1639 15.8955 11.0523 15.7836 10.829V10.7173C15.6716 10.4941 15.6716 10.2708 15.5597 10.0475C15 9.71258 14.6642 9.15439 14.6642 8.48456V6.14014C14.6642 5.58195 17.3507 4.019 17.6866 3.68408L15.2239 1.33967C14.3284 0.669833 12.9851 0 10.9701 0C5.14925 0 4.81343 4.91211 4.81343 4.91211V7.92636C4.47761 8.26128 4.25373 8.5962 4.25373 9.04275V11.1639C4.25373 11.7221 4.58955 12.1686 5.03731 12.5036C5.59702 14.848 7.38806 16.4109 7.38806 16.4109V18.3088C7.38806 18.9786 7.05224 19.6484 6.3806 19.9834L2.23881 22.5511C0.895522 23.3325 0 24.6722 0 26.2351V27.9097H8.6194L11.194 25.9002C11.194 24.114 11.4179 25.342 12.9851 24.4489L14.8881 24.0024Z" fill="#006689"/>
<path d="M27.6493 22.6627L22.612 20.095C21.9403 19.7601 21.4926 19.0903 21.4926 18.4204V16.4109C21.6045 16.2993 21.8284 16.076 21.9403 15.7411C22.612 14.7363 23.1717 13.7316 23.5075 12.6152C24.1791 12.3919 24.6269 11.8337 24.6269 11.0523V8.93111C24.6269 8.48456 24.403 8.038 24.0672 7.70308V4.80047C24.0672 4.80047 24.7388 0 18.2463 0C11.7537 0 12.4254 4.80047 12.4254 4.80047V7.81472C12.0896 8.14964 11.8657 8.48456 11.8657 9.04275V11.1639C11.8657 11.7221 12.2015 12.1686 12.6493 12.5036C13.209 14.848 14.5523 16.5226 14.5523 16.5226V18.4204C14.5523 19.0903 14.2164 19.7601 13.5448 20.095L8.8433 22.6627C7.50001 23.4442 6.60449 24.8955 6.60449 26.3468V28.0214H30V26.4584C30 24.8955 29.1045 23.4442 27.6493 22.6627Z" fill="#7BF1D4"/>
</svg>
